<svg width="125" height="87" viewBox="0 0 125 87" fill="none" xmlns="http://www.w3.org/2000/svg">
<g filter="url(#filter0_d_175_125)">
<path d="M55.3792 41.5149H51.1014V37.0178H55.0564C55.4302 37.0178 55.7959 37.0439 56.1438 37.1122C56.4988 37.1733 56.8036 37.2864 57.0743 37.4501C57.3468 37.6073 57.5628 37.833 57.7259 38.1195C57.8837 38.4062 57.9617 38.7765 57.9617 39.2249C57.9617 40.0311 57.7259 40.6198 57.24 40.9747C56.7488 41.3379 56.1286 41.5149 55.3792 41.5149ZM71.2043 41.5464C70.5938 41.5464 70.0892 41.6488 69.6849 41.8591C69.2896 42.0658 68.9659 42.3237 68.7186 42.6266C68.472 42.9349 68.3036 43.261 68.2057 43.6087C68.1081 43.9476 68.0498 44.2557 68.0319 44.5264H74.2449C74.1533 43.5522 73.82 42.8298 73.3645 42.3228C72.9111 41.8186 72.1419 41.5464 71.2043 41.5464ZM57.9017 45.0395C57.3468 44.6181 56.6073 44.4087 55.6974 44.4087H51.1015V49.7091H55.6132C56.03 49.7091 56.4263 49.6722 56.7983 49.5878C57.1765 49.5051 57.5118 49.3738 57.7942 49.1787C58.0774 48.9936 58.3114 48.7367 58.4817 48.4112C58.652 48.0886 58.7345 47.6697 58.7345 47.163C58.7344 46.1711 58.4556 45.4673 57.9017 45.0395ZM87.4805 43.5433C87.4805 57.3508 76.287 68.5437 62.4805 68.5437C48.6731 68.5437 37.4805 57.3508 37.4805 43.5433C37.4805 29.7368 48.6731 18.5437 62.4805 18.5437C76.287 18.5437 87.4805 29.7368 87.4805 43.5433ZM67.2512 36.929H75.0338V35.0292H67.2512V36.929ZM62.9511 47.3986C62.9511 46.1943 62.6659 45.168 62.0825 44.308C61.5025 43.4561 60.6276 42.8566 59.4452 42.5169C60.313 42.1045 60.9629 41.5743 61.4048 40.929C61.8432 40.2809 62.0627 39.4722 62.0627 38.5035C62.0627 37.6074 61.9157 36.849 61.6234 36.246C61.3232 35.6304 60.9045 35.1433 60.3702 34.7765C59.8271 34.4099 59.1843 34.1429 58.4305 33.983C57.673 33.8185 56.8448 33.7386 55.9259 33.7386H46.8739V52.9865H56.1805C57.0401 52.9865 57.8801 52.8779 58.6895 52.6622C59.507 52.4473 60.2376 52.1159 60.8732 51.6646C61.5043 51.218 62.0162 50.6366 62.3926 49.9221C62.7646 49.2149 62.9511 48.3746 62.9511 47.3986ZM77.7983 43.8372C77.5465 42.8468 77.1431 41.9642 76.5765 41.1923C76.01 40.4185 75.2883 39.8002 74.4081 39.3446C73.5251 38.8826 72.4951 38.6554 71.319 38.6554C70.2542 38.6554 69.2924 38.845 68.42 39.2234C67.5478 39.6017 66.7984 40.1203 66.1674 40.7763C65.5371 41.4305 65.0576 42.2097 64.7115 43.1119C64.3718 44.0132 64.198 44.9866 64.198 46.0292C64.198 47.1065 64.3655 48.0996 64.6971 48.9992C65.0324 49.9016 65.5031 50.6708 66.1089 51.3223C66.7302 51.9685 67.4688 52.4654 68.3536 52.8195C69.2383 53.171 70.2234 53.348 71.3188 53.348C72.8902 53.348 74.2384 52.9867 75.3445 52.2634C76.4632 51.5417 77.2826 50.3447 77.8231 48.6668H74.4607C74.3307 49.098 73.9936 49.5134 73.4406 49.9016C72.8821 50.2916 72.217 50.4866 71.4461 50.4866C70.3758 50.4866 69.5484 50.2044 68.9774 49.6444C68.4029 49.0856 68.0318 48.0413 68.0318 46.9394H78.0634C78.1354 45.8582 78.0484 44.8248 77.7983 43.8372Z" fill="#C1C0B6"/>
</g>
<defs>
<filter id="filter0_d_175_125" x="-4" y="0" width="133" height="95" filterUnits="userSpaceOnUse" color-interpolation-filters="sRGB">
<feFlood flood-opacity="0" result="BackgroundImageFix"/>
<feColorMatrix in="SourceAlpha" type="matrix" values="0 0 0 0 0 0 0 0 0 0 0 0 0 0 0 0 0 0 127 0" result="hardAlpha"/>
<feOffset dy="4"/>
<feGaussianBlur stdDeviation="2"/>
<feComposite in2="hardAlpha" operator="out"/>
<feColorMatrix type="matrix" values="0 0 0 0 0 0 0 0 0 0 0 0 0 0 0 0 0 0 0.25 0"/>
<feBlend mode="normal" in2="BackgroundImageFix" result="effect1_dropShadow_175_125"/>
<feBlend mode="normal" in="SourceGraphic" in2="effect1_dropShadow_175_125" result="shape"/>
</filter>
</defs>
</svg>
