<svg width="144" height="48" viewBox="0 0 144 48" fill="none" xmlns="http://www.w3.org/2000/svg">
<path d="M15.276 22.036H17.112L19.884 30.16L20.58 30.28V31H17.04V30.28L17.94 30.16L17.472 28.6H14.364L13.896 30.172L14.868 30.28V31H11.808L11.796 30.28L12.516 30.16L15.276 22.036ZM16.104 24.064L15.888 23.128L15.66 24.076L14.592 27.76H17.232L16.104 24.064ZM22.4538 22.984L21.5298 22.828V22.084H25.3698V22.828L24.2178 22.984V30.148L26.7858 30.04L27.5418 27.796L28.5138 27.928L28.1418 31H21.5058V30.28L22.4538 30.16V22.984ZM30.6941 22.984L29.7341 22.828V22.084H36.1301L36.2861 24.1H35.4461L35.0501 22.912L32.4581 22.804V26.032L34.1261 25.996L34.3181 25.012H35.0861V27.916H34.3181L34.1261 26.884L32.4581 26.848V30.232L35.3621 30.088L36.0581 28.552L36.9581 28.804L36.6461 31H29.7461V30.28L30.6941 30.16V22.984ZM41.1974 26.644L38.7494 22.996L37.9214 22.828V22.084H41.8454V22.828L40.8254 22.996L42.4694 25.72L44.1614 22.984L43.1294 22.828V22.084H46.2134V22.828L45.2414 22.996L42.9134 26.26L45.5294 30.16L46.3694 30.28V31H42.4574V30.28L43.4654 30.16L41.6654 27.22L39.9374 30.16L41.0894 30.28V31H37.8134V30.28L38.8214 30.16L41.1974 26.644ZM53.9541 22.624L51.6741 22.696L51.2901 25.132H50.6301L50.8341 22.084H58.1421L58.2741 25.132H57.6381L57.3021 22.696L54.9861 22.624V30.376L56.7021 30.484V31H52.3821V30.484L53.9541 30.376V22.624ZM63.7066 31.096C62.5546 31.096 61.7106 30.78 61.1746 30.148C60.6466 29.508 60.3826 28.52 60.3826 27.184V22.732L59.4826 22.6V22.084H62.4226V22.6L61.3906 22.732V27.292C61.3906 28.46 61.5986 29.288 62.0146 29.776C62.4386 30.264 63.0346 30.508 63.8026 30.508C64.5706 30.508 65.1506 30.244 65.5426 29.716C65.9346 29.188 66.1306 28.412 66.1306 27.388V22.744L65.1346 22.6V22.084H67.7986V22.6L66.8866 22.732V27.34C66.8866 28.588 66.5946 29.528 66.0106 30.16C65.4346 30.784 64.6666 31.096 63.7066 31.096ZM72.158 22.624L69.878 22.696L69.494 25.132H68.834L69.038 22.084H76.346L76.478 25.132H75.842L75.506 22.696L73.19 22.624V30.376L74.906 30.484V31H70.586V30.484L72.158 30.376V22.624ZM84.4785 31C84.3265 31 84.1345 30.836 83.9025 30.508C83.6785 30.172 83.3625 29.648 82.9545 28.936C82.5625 28.264 82.2465 27.744 82.0065 27.376C81.7745 27.008 81.5465 26.708 81.3225 26.476L80.0145 27.952V30.376L81.1425 30.496V31H77.9985V30.484L79.0305 30.376V22.732L78.0225 22.6V22.084H81.0465V22.6L80.0145 22.732V27.1L83.7705 22.732L82.7505 22.6V22.084H85.5345V22.6L84.6585 22.732L81.8985 25.816C82.1785 26.048 82.4665 26.372 82.7625 26.788C83.0585 27.204 83.4625 27.8 83.9745 28.576C84.3665 29.184 84.6665 29.632 84.8745 29.92C85.0905 30.208 85.2505 30.356 85.3545 30.364L85.9185 30.496V31H84.4785ZM90.6689 31.132C89.8929 31.132 89.2249 30.944 88.6649 30.568C88.1129 30.184 87.6929 29.652 87.4049 28.972C87.1169 28.292 86.9729 27.504 86.9729 26.608C86.9729 25.688 87.1489 24.88 87.5009 24.184C87.8529 23.48 88.3329 22.94 88.9409 22.564C89.5489 22.18 90.2249 21.988 90.9689 21.988C91.7609 21.988 92.4369 22.172 92.9969 22.54C93.5649 22.908 93.9929 23.428 94.2809 24.1C94.5769 24.772 94.7249 25.56 94.7249 26.464C94.7249 27.392 94.5449 28.212 94.1849 28.924C93.8249 29.628 93.3369 30.172 92.7209 30.556C92.1049 30.94 91.4209 31.132 90.6689 31.132ZM90.8609 22.552C90.0049 22.552 89.3249 22.9 88.8209 23.596C88.3169 24.284 88.0649 25.288 88.0649 26.608C88.0649 27.376 88.1729 28.06 88.3889 28.66C88.6049 29.26 88.9209 29.728 89.3369 30.064C89.7529 30.4 90.2489 30.568 90.8249 30.568C91.3849 30.568 91.8729 30.416 92.2889 30.112C92.7049 29.8 93.0289 29.336 93.2609 28.72C93.4929 28.104 93.6089 27.352 93.6089 26.464C93.6089 25.688 93.5009 25.008 93.2849 24.424C93.0689 23.832 92.7529 23.372 92.3369 23.044C91.9289 22.716 91.4369 22.552 90.8609 22.552ZM95.5739 22.084H98.4899V22.6L97.3859 22.732L99.4739 28.516L99.9779 30.148L100.434 28.492L102.306 22.732L101.346 22.6V22.084H103.878V22.6L103.11 22.732L100.218 31.096H99.4259L96.3179 22.732L95.5739 22.6V22.084ZM107.708 31.132C107.3 31.132 106.94 31.096 106.628 31.024C106.316 30.952 105.956 30.852 105.548 30.724C105.276 30.636 105.112 30.588 105.056 30.58L105.152 28.444H105.776L105.956 30.016C106.108 30.16 106.348 30.284 106.676 30.388C107.012 30.492 107.376 30.544 107.768 30.544C108.416 30.544 108.912 30.396 109.256 30.1C109.6 29.804 109.772 29.396 109.772 28.876C109.772 28.54 109.68 28.256 109.496 28.024C109.32 27.792 109.088 27.596 108.8 27.436C108.52 27.276 108.128 27.088 107.624 26.872C107.152 26.672 106.748 26.472 106.412 26.272C106.084 26.072 105.796 25.804 105.548 25.468C105.3 25.124 105.176 24.716 105.176 24.244C105.176 23.804 105.296 23.412 105.536 23.068C105.776 22.724 106.108 22.46 106.532 22.276C106.964 22.084 107.456 21.988 108.008 21.988C108.344 21.988 108.64 22.016 108.896 22.072C109.16 22.12 109.492 22.2 109.892 22.312C110.108 22.376 110.236 22.412 110.276 22.42L110.204 24.388H109.604L109.388 22.9C109.292 22.82 109.104 22.744 108.824 22.672C108.552 22.592 108.26 22.552 107.948 22.552C107.356 22.552 106.904 22.676 106.592 22.924C106.28 23.164 106.124 23.524 106.124 24.004C106.124 24.332 106.208 24.608 106.376 24.832C106.544 25.048 106.76 25.232 107.024 25.384C107.288 25.536 107.696 25.74 108.248 25.996C108.824 26.268 109.272 26.504 109.592 26.704C109.92 26.896 110.204 27.152 110.444 27.472C110.692 27.784 110.816 28.164 110.816 28.612C110.816 29.036 110.692 29.444 110.444 29.836C110.196 30.22 109.836 30.532 109.364 30.772C108.892 31.012 108.34 31.132 107.708 31.132ZM119.046 31C118.894 31 118.702 30.836 118.47 30.508C118.246 30.172 117.93 29.648 117.522 28.936C117.13 28.264 116.814 27.744 116.574 27.376C116.342 27.008 116.114 26.708 115.89 26.476L114.582 27.952V30.376L115.71 30.496V31H112.566V30.484L113.598 30.376V22.732L112.59 22.6V22.084H115.614V22.6L114.582 22.732V27.1L118.338 22.732L117.318 22.6V22.084H120.102V22.6L119.226 22.732L116.466 25.816C116.746 26.048 117.034 26.372 117.33 26.788C117.626 27.204 118.03 27.8 118.542 28.576C118.934 29.184 119.234 29.632 119.442 29.92C119.658 30.208 119.818 30.356 119.922 30.364L120.486 30.496V31H119.046ZM124.505 27.568L121.733 22.744L120.989 22.6V22.084H123.857V22.6L122.849 22.732L124.661 26.128L125.093 27.088L125.561 26.128L127.301 22.732L126.293 22.6V22.084H128.897V22.6L128.105 22.732L125.513 27.556V30.364L126.881 30.484V31H123.173V30.484L124.505 30.376V27.568Z" fill="black"/>
</svg>
