<svg width="108" height="21" viewBox="0 0 108 21" fill="none" xmlns="http://www.w3.org/2000/svg">
<path d="M7.73 7.53H9.26L11.57 14.3L12.15 14.4V15H9.2V14.4L9.95 14.3L9.56 13H6.97L6.58 14.31L7.39 14.4V15H4.84L4.83 14.4L5.43 14.3L7.73 7.53ZM8.42 9.22L8.24 8.44L8.05 9.23L7.16 12.3H9.36L8.42 9.22ZM13.7115 8.32L12.9415 8.19V7.57H16.1415V8.19L15.1815 8.32V14.29L17.3215 14.2L17.9515 12.33L18.7615 12.44L18.4515 15H12.9215V14.4L13.7115 14.3V8.32ZM20.5784 8.32L19.7784 8.19V7.57H25.1084L25.2384 9.25H24.5384L24.2084 8.26L22.0484 8.17V10.86L23.4384 10.83L23.5984 10.01H24.2384V12.43H23.5984L23.4384 11.57L22.0484 11.54V14.36L24.4684 14.24L25.0484 12.96L25.7984 13.17L25.5384 15H19.7884V14.4L20.5784 14.3V8.32ZM29.3312 11.37L27.2912 8.33L26.6012 8.19V7.57H29.8712V8.19L29.0212 8.33L30.3912 10.6L31.8012 8.32L30.9412 8.19V7.57H33.5112V8.19L32.7012 8.33L30.7612 11.05L32.9412 14.3L33.6412 14.4V15H30.3812V14.4L31.2212 14.3L29.7212 11.85L28.2812 14.3L29.2412 14.4V15H26.5112V14.4L27.3512 14.3L29.3312 11.37ZM39.9617 8.02L38.0617 8.08L37.7417 10.11H37.1917L37.3617 7.57H43.4517L43.5617 10.11H43.0317L42.7517 8.08L40.8217 8.02V14.48L42.2517 14.57V15H38.6517V14.57L39.9617 14.48V8.02ZM48.0888 15.08C47.1288 15.08 46.4255 14.8167 45.9788 14.29C45.5388 13.7567 45.3188 12.9333 45.3188 11.82V8.11L44.5688 8V7.57H47.0188V8L46.1588 8.11V11.91C46.1588 12.8833 46.3322 13.5733 46.6788 13.98C47.0322 14.3867 47.5288 14.59 48.1688 14.59C48.8088 14.59 49.2922 14.37 49.6188 13.93C49.9455 13.49 50.1088 12.8433 50.1088 11.99V8.12L49.2788 8V7.57H51.4988V8L50.7388 8.11V11.95C50.7388 12.99 50.4955 13.7733 50.0088 14.3C49.5288 14.82 48.8888 15.08 48.0888 15.08ZM55.1316 8.02L53.2316 8.08L52.9116 10.11H52.3616L52.5316 7.57H58.6216L58.7316 10.11H58.2016L57.9216 8.08L55.9916 8.02V14.48L57.4216 14.57V15H53.8216V14.57L55.1316 14.48V8.02ZM65.3988 15C65.2721 15 65.1121 14.8633 64.9188 14.59C64.7321 14.31 64.4688 13.8733 64.1288 13.28C63.8021 12.72 63.5388 12.2867 63.3388 11.98C63.1454 11.6733 62.9554 11.4233 62.7688 11.23L61.6788 12.46V14.48L62.6188 14.58V15H59.9988V14.57L60.8588 14.48V8.11L60.0188 8V7.57H62.5388V8L61.6788 8.11V11.75L64.8088 8.11L63.9588 8V7.57H66.2788V8L65.5488 8.11L63.2488 10.68C63.4821 10.8733 63.7221 11.1433 63.9688 11.49C64.2154 11.8367 64.5521 12.3333 64.9787 12.98C65.3054 13.4867 65.5554 13.86 65.7288 14.1C65.9088 14.34 66.0421 14.4633 66.1288 14.47L66.5988 14.58V15H65.3988ZM70.5574 15.11C69.9108 15.11 69.3541 14.9533 68.8874 14.64C68.4274 14.32 68.0774 13.8767 67.8374 13.31C67.5974 12.7433 67.4774 12.0867 67.4774 11.34C67.4774 10.5733 67.6241 9.9 67.9174 9.32C68.2108 8.73333 68.6108 8.28333 69.1174 7.97C69.6241 7.65 70.1874 7.49 70.8074 7.49C71.4674 7.49 72.0308 7.64333 72.4974 7.95C72.9708 8.25667 73.3274 8.69 73.5674 9.25C73.8141 9.81 73.9374 10.4667 73.9374 11.22C73.9374 11.9933 73.7874 12.6767 73.4874 13.27C73.1874 13.8567 72.7808 14.31 72.2674 14.63C71.7541 14.95 71.1841 15.11 70.5574 15.11ZM70.7174 7.96C70.0041 7.96 69.4374 8.25 69.0174 8.83C68.5974 9.40333 68.3874 10.24 68.3874 11.34C68.3874 11.98 68.4774 12.55 68.6574 13.05C68.8374 13.55 69.1008 13.94 69.4474 14.22C69.7941 14.5 70.2074 14.64 70.6874 14.64C71.1541 14.64 71.5608 14.5133 71.9074 14.26C72.2541 14 72.5241 13.6133 72.7174 13.1C72.9108 12.5867 73.0074 11.96 73.0074 11.22C73.0074 10.5733 72.9174 10.0067 72.7374 9.52C72.5574 9.02667 72.2941 8.64333 71.9474 8.37C71.6074 8.09667 71.1974 7.96 70.7174 7.96ZM74.6449 7.57H77.0749V8L76.1549 8.11L77.8949 12.93L78.3149 14.29L78.6949 12.91L80.2549 8.11L79.4549 8V7.57H81.5649V8L80.9249 8.11L78.5149 15.08H77.8549L75.2649 8.11L74.6449 8V7.57ZM84.7565 15.11C84.4165 15.11 84.1165 15.08 83.8565 15.02C83.5965 14.96 83.2965 14.8767 82.9565 14.77C82.7298 14.6967 82.5932 14.6567 82.5465 14.65L82.6265 12.87H83.1465L83.2965 14.18C83.4232 14.3 83.6232 14.4033 83.8965 14.49C84.1765 14.5767 84.4798 14.62 84.8065 14.62C85.3465 14.62 85.7598 14.4967 86.0465 14.25C86.3332 14.0033 86.4765 13.6633 86.4765 13.23C86.4765 12.95 86.3998 12.7133 86.2465 12.52C86.0998 12.3267 85.9065 12.1633 85.6665 12.03C85.4332 11.8967 85.1065 11.74 84.6865 11.56C84.2932 11.3933 83.9565 11.2267 83.6765 11.06C83.4032 10.8933 83.1632 10.67 82.9565 10.39C82.7498 10.1033 82.6465 9.76333 82.6465 9.37C82.6465 9.00333 82.7465 8.67667 82.9465 8.39C83.1465 8.10333 83.4232 7.88333 83.7765 7.73C84.1365 7.57 84.5465 7.49 85.0065 7.49C85.2865 7.49 85.5332 7.51333 85.7465 7.56C85.9665 7.6 86.2432 7.66667 86.5765 7.76C86.7565 7.81333 86.8632 7.84333 86.8965 7.85L86.8365 9.49H86.3365L86.1565 8.25C86.0765 8.18333 85.9198 8.12 85.6865 8.06C85.4598 7.99333 85.2165 7.96 84.9565 7.96C84.4632 7.96 84.0865 8.06333 83.8265 8.27C83.5665 8.47 83.4365 8.77 83.4365 9.17C83.4365 9.44333 83.5065 9.67333 83.6465 9.86C83.7865 10.04 83.9665 10.1933 84.1865 10.32C84.4065 10.4467 84.7465 10.6167 85.2065 10.83C85.6865 11.0567 86.0598 11.2533 86.3265 11.42C86.5998 11.58 86.8365 11.7933 87.0365 12.06C87.2432 12.32 87.3465 12.6367 87.3465 13.01C87.3465 13.3633 87.2432 13.7033 87.0365 14.03C86.8298 14.35 86.5298 14.61 86.1365 14.81C85.7432 15.01 85.2832 15.11 84.7565 15.11ZM94.2054 15C94.0787 15 93.9187 14.8633 93.7254 14.59C93.5387 14.31 93.2754 13.8733 92.9354 13.28C92.6087 12.72 92.3454 12.2867 92.1454 11.98C91.9521 11.6733 91.7621 11.4233 91.5754 11.23L90.4854 12.46V14.48L91.4254 14.58V15H88.8054V14.57L89.6654 14.48V8.11L88.8254 8V7.57H91.3454V8L90.4854 8.11V11.75L93.6154 8.11L92.7654 8V7.57H95.0854V8L94.3554 8.11L92.0554 10.68C92.2887 10.8733 92.5287 11.1433 92.7754 11.49C93.0221 11.8367 93.3587 12.3333 93.7854 12.98C94.1121 13.4867 94.3621 13.86 94.5354 14.1C94.7154 14.34 94.8487 14.4633 94.9354 14.47L95.4054 14.58V15H94.2054ZM98.7541 12.14L96.4441 8.12L95.8241 8V7.57H98.2141V8L97.3741 8.11L98.8841 10.94L99.2441 11.74L99.6341 10.94L101.084 8.11L100.244 8V7.57H102.414V8L101.754 8.11L99.5941 12.13V14.47L100.734 14.57V15H97.6441V14.57L98.7541 14.48V12.14Z" fill="black"/>
</svg>
